<?xml version="1.0" encoding="utf-8"?>
<!-- Generator: Adobe Illustrator 19.1.0, SVG Export Plug-In . SVG Version: 6.00 Build 0)  -->
<svg version="1.1" id="Layer_1" xmlns="http://www.w3.org/2000/svg" xmlns:xlink="http://www.w3.org/1999/xlink" x="0px" y="0px"
	 viewBox="0 0 600 403.2" style="enable-background:new 0 0 600 403.2;" xml:space="preserve">
<style type="text/css">
	.st0{display:none;}
	.st1{display:inline;fill:#DDDDDD;}
	.st2{display:inline;fill:#89391A;}
	.st3{display:inline;fill:#3A0B0B;}
	.st4{display:inline;}
	.st5{fill:#C1A195;}
	.st6{display:inline;fill:#EFEFEF;}
	.st7{opacity:0.25;fill:#A52F20;}
	.st8{opacity:0.5;fill:#A52F20;}
	.st9{opacity:0.75;fill:#A52F20;}
	.st10{fill:#A52F20;}
	.st11{fill:#E5E5E5;}
	.st12{fill:#FFFFFF;}
</style>
<g class="st0">
	<rect x="39.5" y="45.3" class="st1" width="521" height="328.6"/>
	<rect x="39.5" y="45.3" class="st2" width="128.4" height="328.6"/>
	<rect x="39.5" y="18.6" class="st3" width="521" height="26.7"/>
	<g class="st4">
		<rect x="65.2" y="71.9" class="st5" width="82.6" height="10.1"/>
		<rect x="65.2" y="108.3" class="st5" width="82.6" height="10.1"/>
		<rect x="65.2" y="144.6" class="st5" width="82.6" height="10.1"/>
		<rect x="65.2" y="180.9" class="st5" width="82.6" height="10.1"/>
		<rect x="65.2" y="213.9" class="st5" width="82.6" height="10.1"/>
		<rect x="65.2" y="250.2" class="st5" width="82.6" height="10.1"/>
		<rect x="65.2" y="286.5" class="st5" width="82.6" height="10.1"/>
		<rect x="65.2" y="322.8" class="st5" width="82.6" height="10.1"/>
	</g>
	<rect x="194.6" y="66.1" class="st6" width="342.2" height="147"/>
	<rect x="194.6" y="221.3" class="st6" width="112.8" height="129.7"/>
	<rect x="318.2" y="222.7" class="st6" width="218.6" height="129.7"/>
</g>
<g>
	<rect x="40.7" y="118.3" class="st7" width="420.5" height="258.1"/>
	<rect x="65.2" y="84" class="st8" width="420.5" height="258.1"/>
	<rect x="97.2" y="50.6" class="st9" width="420.5" height="258.1"/>
	<rect x="140" y="18.6" class="st10" width="420.5" height="258.1"/>
	<path class="st11" d="M316.7,106.2l53.4,28.4c10.2,4.2,9.9,28.8-0.5,32.5l-53.4,33.7c-7.9,2.8-16.2-3-16.2-11.4v-72.1
		C300,108.8,308.7,102.9,316.7,106.2z"/>
	<path class="st12" d="M316.7,97.3l53.4,38.4c10.2,4.2,9.9,18.8-0.5,22.5l-53.4,33.7c-7.9,2.8-16.2-3-16.2-11.4v-72.1
		C300,99.9,308.7,94,316.7,97.3z"/>
</g>
</svg>
