<?xml version="1.0" encoding="utf-8"?>
<!-- Generator: Adobe Illustrator 19.1.0, SVG Export Plug-In . SVG Version: 6.00 Build 0)  -->
<svg version="1.1" id="Layer_1" xmlns="http://www.w3.org/2000/svg" xmlns:xlink="http://www.w3.org/1999/xlink" x="0px" y="0px"
	 viewBox="0 0 499 234" style="enable-background:new 0 0 499 234;" xml:space="preserve">
<style type="text/css">
	.st0{fill:#BE2126;}
	.st1{fill:#942322;}
	.st2{fill:#F2B6B9;}
	.st3{fill:#6CAA43;}
	.st4{fill:#507C39;}
	.st5{fill:#661212;}
</style>
<g>
	<g>
		<path class="st0" d="M265.7,57.5c13.4,4.4,21,16.2,18,27.9c-6.5,25.7-24.2,45.8-5.9,93.5c11.1,29.1,6.7,29.2,0.6,29.7
			s-34.1-8.3-54-54.2c-15.1-34.6-17.5-79.5-8.2-90.2c5-5.7,15.3-8.6,23.4-10.5c5.6-1.3,11.6-1,17.1,0.8L265.7,57.5z"/>
		<path class="st1" d="M240.4,59.6c1-2.9-2.5-5.5-5.9-4.4c-6.1,1.9-14.4,4.6-18.3,9.1c-9.4,10.7-6.9,55.6,8.2,90.2
			c16.2,37.3,41.8,49.8,50.8,53.1c0.9,0.4,1.8-0.6,1.2-1.3C216,137.2,231.2,87,240.4,59.6z"/>
		<path class="st2" d="M267.7,88.1l1.4,1.6c0.8,0.9,1.6,2.7,1,4.1c-7.9,17.6-11.1,28.8-6.3,64c0.8,6-19.9-51.6-0.4-70.5
			C265.7,85,266.1,86.2,267.7,88.1z"/>
		<path class="st3" d="M213.1,75.1c-0.7-6.9,0.8-13.3,7.7-17.1c9.8-5.4,48.1-11.2,57.8,6.1c12.3,22-2.1,6.3-27.2,10.2
			c-7.3,1.1-20.7,11.8-32.4,7.9C216.4,81.4,213.3,77.1,213.1,75.1z"/>
		<path class="st4" d="M234.5,80.2c-1.6,6-15.4,2.1-15.4,2.1c-2.6-0.9-5.7-5.2-5.9-7.1c-0.7-6.9,0.8-13.3,7.7-17.1
			c0,0,14-5.5,23.5-4.7C244.3,53.4,240.9,56.6,234.5,80.2z"/>
		<path class="st3" d="M245.1,54.2c0,0-2.1-28.3,12.4-28.8c0,0-1.8,3.7,2.3,4.3c0,0-13.3,16.7-11.4,23.3S245.1,54.2,245.1,54.2z"/>
	</g>
	<g>
		<path class="st5" d="M11.8,127.5c2-0.2,4-0.3,6.1-0.3c2.1-0.1,4.1-0.1,6.1-0.1c2,0,4.1,0,6.2,0.1c2.1,0.1,4.1,0.2,6.2,0.3v2.3
			c0,2.2,1.3,4.2,4,5.8c2.6,1.6,6.4,2.4,11.2,2.4c2.6,0,4.4-0.4,5.6-1.2c1.2-0.8,1.7-1.8,1.7-3.1c0-2.5-1.7-4.2-5.1-5.1l-22.1-5.7
			c-6.6-1.7-11.5-4.6-14.7-8.6c-3.2-4-4.8-9.2-4.8-15.5c0-4.6,0.9-8.7,2.7-12.1c1.8-3.4,4.2-6.3,7.1-8.5c2.9-2.2,6.3-3.9,10-4.9
			c3.7-1.1,7.4-1.6,11.2-1.6c4.4,0,8.2,0.4,11.3,1.3c3.1,0.9,5.7,1.9,7.6,3.1v-2.6c1.8-0.2,3.5-0.3,5.3-0.3c1.7-0.1,3.5-0.1,5.3-0.1
			c1.8,0,3.6,0,5.3,0.1c1.8,0.1,3.6,0.2,5.3,0.3v27.7c-2,0.2-4.1,0.3-6.2,0.3c-2.1,0.1-4.1,0.1-6.2,0.1c-2,0-4,0-6.1-0.1
			c-2.1-0.1-4.1-0.2-6.1-0.3v-1.4c0-1.8-1-3.4-3-4.8c-2-1.4-4.8-2.2-8.3-2.2c-3.3,0-5.4,0.5-6.5,1.5c-1.1,1-1.6,2.1-1.6,3.1
			c0,0.6,0.2,1.2,0.6,1.8c0.4,0.6,1.3,1.1,2.7,1.5l21.6,5.2c4.9,1.2,8.8,2.8,11.7,4.9c2.9,2.1,5.2,4.4,6.8,6.9
			c1.6,2.5,2.6,5.1,3.1,7.8c0.5,2.7,0.8,5.3,0.8,7.9c0,5.6-1.1,10.1-3.3,13.5c-2.2,3.4-4.9,6.1-8.1,8.1c-3.3,1.9-6.8,3.3-10.5,4
			c-3.8,0.7-7.2,1-10.4,1c-5,0-9-0.4-12.3-1.2c-3.2-0.8-6-1.8-8.4-3.1v2.6c-1.9,0.2-3.7,0.3-5.6,0.3c-1.9,0.1-3.7,0.1-5.5,0.1
			c-1.9,0-3.7,0-5.5-0.1c-1.8-0.1-3.6-0.2-5.4-0.3V127.5z"/>
		<path class="st5" d="M125.6,137.3V94.4h-5.3c-0.2-1.8-0.3-3.5-0.3-5.2c-0.1-1.7-0.1-3.4-0.1-5.2c0-1.8,0-3.5,0.1-5.2
			c0.1-1.7,0.2-3.4,0.3-5.2h44.5c4.6,0,8.8,0.7,12.3,2.1c3.6,1.4,6.6,3.3,9,5.8c2.4,2.4,4.3,5.3,5.5,8.5c1.2,3.3,1.9,6.8,1.9,10.6
			c0,3.2-0.5,6.4-1.5,9.7c-1,3.3-2.6,6.3-4.8,8.9c-2.2,2.6-5.2,4.8-8.8,6.5c-3.6,1.7-8.2,2.5-13.6,2.5h-13v9.3h10.9
			c0.2,1.8,0.3,3.5,0.3,5.2c0.1,1.7,0.1,3.4,0.1,5.2c0,1.8,0,3.5-0.1,5.2c-0.1,1.7-0.2,3.4-0.3,5.2h-42.4c-0.2-1.8-0.3-3.5-0.3-5.2
			c-0.1-1.7-0.1-3.4-0.1-5.2c0-1.8,0-3.5,0.1-5.2c0.1-1.7,0.2-3.4,0.3-5.2H125.6z M160.8,107.5c1.8,0,3.2-0.6,4.3-1.8
			c1.1-1.2,1.6-2.8,1.6-4.9c0-1.9-0.5-3.4-1.6-4.8c-1.1-1.3-2.5-2-4.3-2h-9.1v13.5H160.8z"/>
	</g>
	<g>
		<path class="st5" d="M347.7,103.9c0-3.3-0.7-5.8-2.1-7.5c-1.4-1.7-3.5-2.6-6.3-2.6c-8.2,0-12.3,6.8-12.3,20.5
			c0,3.9,0.4,7.1,1.3,9.8c0.9,2.6,2.1,4.8,3.8,6.4c1.7,1.6,3.8,2.8,6.2,3.5c2.4,0.7,5.2,1.1,8.4,1.1c3.3,0,6.4-0.3,9.2-1
			c2.8-0.7,5.3-1.5,7.4-2.4c2.2-1,4-2,5.6-3c1.5-1,2.7-1.9,3.6-2.6v27.8c-0.8,0.4-1.9,1-3.5,1.7c-1.6,0.7-3.6,1.5-6,2.2
			c-2.5,0.7-5.5,1.3-9,1.9c-3.5,0.5-7.6,0.8-12.2,0.8c-14.6,0-25.6-3.9-33.1-11.6c-7.5-7.7-11.3-18.6-11.3-32.7
			c0-6.7,0.9-12.9,2.7-18.4c1.8-5.5,4.4-10.2,7.7-14.1c3.3-3.9,7.2-6.9,11.9-9c4.6-2.1,9.7-3.1,15.3-3.1c4.6,0,8.3,0.5,10.8,1.6
			c2.6,1,4.6,2,6,3v-2.4c1.8-0.2,3.5-0.3,5.3-0.3c1.7-0.1,3.5-0.1,5.3-0.1c1.8,0,3.6,0,5.3,0.1c1.8,0.1,3.6,0.2,5.3,0.3v39.8
			c-2.2,0.2-4.3,0.3-6.5,0.3c-2.1,0.1-4.2,0.1-6.3,0.1c-2.2,0-4.3,0-6.4-0.1c-2.1-0.1-4.2-0.2-6.3-0.3V103.9z"/>
		<path class="st5" d="M414.1,137.3V94.4h-5.3c-0.2-1.8-0.3-3.5-0.3-5.2c-0.1-1.7-0.1-3.4-0.1-5.2c0-1.8,0-3.5,0.1-5.2
			c0.1-1.7,0.2-3.4,0.3-5.2h73.1v25.9c-2.1,0.2-4.2,0.3-6.3,0.3c-2.1,0.1-4.2,0.1-6.3,0.1c-2.1,0-4.2,0-6.3-0.1
			c-2.1-0.1-4.2-0.2-6.3-0.3v-4.9h-14.4v9.6H470c0.2,1.9,0.3,3.7,0.3,5.6c0.1,1.9,0.1,3.7,0.1,5.5c0,1.9,0,3.7-0.1,5.5
			c-0.1,1.8-0.2,3.6-0.3,5.4h-27.7v10.3h15v-5.3c3.7-0.2,7.5-0.3,11.4-0.3c2.3,0,4.6,0,6.9,0.1c2.3,0.1,4.6,0.2,6.9,0.3v27h-73.8
			c-0.2-1.8-0.3-3.5-0.3-5.2c-0.1-1.7-0.1-3.4-0.1-5.2c0-1.8,0-3.5,0.1-5.2c0.1-1.7,0.2-3.4,0.3-5.2H414.1z"/>
	</g>
</g>
</svg>
