<?xml version="1.0" encoding="utf-8"?>
<!-- Generator: Adobe Illustrator 19.1.0, SVG Export Plug-In . SVG Version: 6.00 Build 0)  -->
<svg width="220" height="97" version="1.1" id="Layer_1" xmlns="http://www.w3.org/2000/svg" xmlns:xlink="http://www.w3.org/1999/xlink" x="0px" y="0px"
	 viewBox="-240.2 249.3 240.5 97" style="enable-background:new -240.2 249.3 240.5 97;" xml:space="preserve">
<style type="text/css">
	.st0{fill:#BE2126;}
	.st1{fill:#942322;}
	.st2{fill:#F2B6B9;}
	.st3{fill:#6CAA43;}
	.st4{fill:#507C39;}
	.st5{fill:#D54614;}
</style>
<g>
	<g>
		<path class="st0" d="M-112.5,272.6c5.7,1.9,8.9,6.9,7.6,11.8c-2.7,10.9-10.3,19.5-2.5,39.7c4.7,12.3,2.8,12.4,0.3,12.6
			s-14.4-3.5-22.9-23c-6.4-14.7-7.4-33.7-3.5-38.3c2.1-2.4,6.5-3.7,9.9-4.4c2.4-0.6,4.9-0.4,7.3,0.4L-112.5,272.6z"/>
		<path class="st1" d="M-123.2,273.4c0.4-1.2-1.1-2.3-2.5-1.9c-2.6,0.8-6.1,2-7.7,3.9c-4,4.5-2.9,23.6,3.5,38.3
			c6.9,15.8,17.7,21.2,21.6,22.5c0.4,0.2,0.8-0.3,0.5-0.6C-133.6,306.4-127.1,285.1-123.2,273.4z"/>
		<path class="st2" d="M-111.6,285.5l0.6,0.7c0.4,0.4,0.7,1.1,0.4,1.8c-3.4,7.5-4.7,12.2-2.7,27.1c0.4,2.5-8.5-21.9-0.2-29.9
			C-112.5,284.3-112.3,284.7-111.6,285.5z"/>
		<path class="st3" d="M-134.8,280.1c-0.3-2.9,0.4-5.6,3.3-7.3c4.2-2.3,20.4-4.7,24.5,2.6c5.2,9.3-0.9,2.7-11.6,4.3
			c-3.1,0.5-8.8,5-13.7,3.4C-133.4,282.7-134.7,280.9-134.8,280.1z"/>
		<path class="st4" d="M-125.8,282.2c-0.7,2.5-6.6,0.9-6.6,0.9c-1.1-0.4-2.4-2.2-2.5-3c-0.3-2.9,0.4-5.6,3.3-7.3c0,0,5.9-2.3,10-2
			C-121.6,270.8-123,272.2-125.8,282.2z"/>
		<path class="st3" d="M-121.2,271.1c0,0-0.9-12,5.3-12.2c0,0-0.8,1.5,1,1.8c0,0-5.6,7.1-4.9,9.9
			C-119,273.4-121.2,271.1-121.2,271.1z"/>
	</g>
	<g>
		<path class="st5" d="M-233.1,305.3v3.2c0,2.7,3.5,4.4,7.5,4.4c4.3,0,7.4-1.9,7.4-5.3c0-4.3-4.9-5.7-9.8-7.6
			c-5.7-2.2-11.2-4.7-11.2-12.3c0-8.6,7-11.9,14.3-11.9c6.7,0,13.5,2.6,13.5,7.5v5.6h-7.2V286c0-2.2-3.2-3.3-6.3-3.3
			c-3.5,0-6.3,1.4-6.3,4.7c0,3.9,4,5.3,8.4,7c6.3,2.3,12.7,4.8,12.7,12.8c0,8.7-7.3,12.7-15.4,12.7c-7.1,0-14.7-3.2-14.7-9.6v-4.8
			L-233.1,305.3L-233.1,305.3z"/>
		<path class="st5" d="M-188.8,313.2h5.1v-30.8h-5.1v-5.9h20.4c2.5,0,5.1,0.2,7.2,1.1c4.6,1.9,7.6,6.7,7.6,12.6c0,6-3.2,11.2-8.1,13
			c-2,0.7-4.1,0.8-6.6,0.8h-7.6v9.2h5.2v5.9h-18.1L-188.8,313.2L-188.8,313.2z M-169.2,297.7c1.8,0,3.1-0.3,4.3-0.8
			c2.3-1.1,3.5-3.6,3.5-6.7c0-2.9-1.1-5.2-3.1-6.3c-1.2-0.7-2.7-1-4.6-1h-6.7v14.9H-169.2z"/>
	</g>
	<g>
		<path class="st5" d="M-71,275.8c5.2,0,16.6,1.8,16.6,8.5v5.8h-7.2v-3.3c0-3.2-5.6-4.3-9.1-4.3c-8.2,0-14.2,5.8-14.2,14.8
			c0,9.6,6.2,15.8,14.7,15.8c2.6,0,9.2-0.8,9.2-4.2v-3.3h7.1v5.8c0,6.3-11,8.4-16.9,8.4c-12.9,0-22.2-9.8-22.2-22.2
			C-92.9,285-83.3,275.8-71,275.8z"/>
		<path class="st5" d="M-32.3,313.2h5.1v-30.8h-5.1v-5.9h31.6v11h-6.7v-4.7h-11.9v11.7h14v6.3h-14v12h12.8V308h6.7v11.1h-32.5V313.2
			L-32.3,313.2z"/>
	</g>
</g>
</svg>
