<?xml version="1.0" encoding="utf-8"?>
<!-- Generator: Adobe Illustrator 19.1.0, SVG Export Plug-In . SVG Version: 6.00 Build 0)  -->
<svg width="300" height="97" version="1.1" id="Layer_1" xmlns="http://www.w3.org/2000/svg" xmlns:xlink="http://www.w3.org/1999/xlink" x="0px" y="0px"
	 viewBox="-180 204.3 481 188" style="enable-background:new -180 204.3 481 188;" xml:space="preserve">
<style type="text/css">
	.st0{fill:#BE2126;}
	.st1{fill:#942322;}
	.st2{fill:#F2B6B9;}
	.st3{fill:#6CAA43;}
	.st4{fill:#507C39;}
	.st5{fill:#D54614;}
</style>
<g>
	<g>
		<path class="st0" d="M75,249.4c11,3.6,17.3,13.3,14.8,22.9c-5.3,21.1-19.9,37.7-4.9,76.9c9.1,23.9,5.5,24,0.5,24.4
			s-28-6.8-44.4-44.6c-12.4-28.5-14.4-65.4-6.7-74.2c4.1-4.7,12.6-7.1,19.2-8.6c4.6-1.1,9.5-0.8,14.1,0.7L75,249.4z"/>
		<path class="st1" d="M54.2,251.1c0.8-2.4-2.1-4.5-4.9-3.6c-5,1.6-11.8,3.8-15,7.5c-7.7,8.8-5.7,45.7,6.7,74.2
			c13.3,30.7,34.4,41,41.8,43.7c0.7,0.3,1.5-0.5,1-1.1C34.1,315,46.7,273.7,54.2,251.1z"/>
		<path class="st2" d="M76.7,274.5l1.2,1.3c0.7,0.7,1.3,2.2,0.8,3.4c-6.5,14.5-9.1,23.7-5.2,52.6c0.7,4.9-16.4-42.4-0.3-58
			C75,272.1,75.3,273,76.7,274.5z"/>
		<path class="st3" d="M31.8,263.9c-0.6-5.7,0.7-10.9,6.3-14.1c8.1-4.4,39.6-9.2,47.5,5c10.1,18.1-1.7,5.2-22.4,8.4
			c-6,0.9-17,9.7-26.6,6.5C34.5,269.1,32,265.6,31.8,263.9z"/>
		<path class="st4" d="M49.3,268.1c-1.3,4.9-12.7,1.7-12.7,1.7c-2.1-0.7-4.7-4.3-4.9-5.8c-0.6-5.7,0.7-10.9,6.3-14.1
			c0,0,11.5-4.5,19.3-3.9C57.4,246,54.7,248.7,49.3,268.1z"/>
		<path class="st3" d="M58.1,246.6c0,0-1.7-23.3,10.2-23.7c0,0-1.5,3,1.9,3.5c0,0-10.9,13.7-9.4,19.2S58.1,246.6,58.1,246.6z"/>
	</g>
	<g>
		<path class="st5" d="M-158.7,312.9v6.2c0,5.3,6.7,8.5,14.5,8.5c8.4,0,14.3-3.6,14.3-10.2c0-8.4-9.4-11-18.9-14.8
			c-11-4.2-21.8-9.2-21.8-23.9c0-16.6,13.5-23,27.7-23c13,0,26.2,5,26.2,14.5V281h-14v-5.6c0-4.2-6.2-6.4-12.3-6.4
			c-6.7,0-12.3,2.8-12.3,9.1c0,7.6,7.7,10.2,16.3,13.5c12.3,4.4,24.6,9.3,24.6,24.8c0,16.9-14.2,24.6-29.8,24.6
			c-13.7,0-28.4-6.2-28.4-18.6V313h13.9V312.9z"/>
		<path class="st5" d="M-72.9,328.2h9.9v-59.7h-9.9V257h39.5c4.9,0,9.9,0.3,13.9,2.1c8.9,3.7,14.8,12.9,14.8,24.4
			c0,11.7-6.2,21.7-15.7,25.1c-3.8,1.3-8,1.6-12.7,1.6h-14.8v17.9h10v11.4H-73L-72.9,328.2L-72.9,328.2z M-35,298.1
			c3.5,0,6-0.5,8.4-1.6c4.4-2.2,6.7-6.9,6.7-12.9c0-5.7-2.2-10.1-6-12.3c-2.3-1.4-5.2-2-8.9-2h-12.9v28.8H-35z"/>
	</g>
	<g>
		<path class="st5" d="M155.5,255.6c10,0,32.2,3.5,32.2,16.5v11.2h-13.9v-6.4c0-6.2-10.9-8.3-17.7-8.3c-15.9,0-27.5,11.2-27.5,28.6
			c0,18.6,12.1,30.7,28.4,30.7c5,0,17.9-1.6,17.9-8.1v-6.4h13.8v11.3c0,12.3-21.3,16.3-32.7,16.3c-25,0-43.1-18.9-43.1-43
			C112.9,273.5,131.5,255.6,155.5,255.6z"/>
		<path class="st5" d="M230.5,328.2h9.9v-59.7h-9.9V257h61.3v21.3h-13v-9.1h-23.1v22.7h27.1v12.2h-27.2v23.2h24.9V318h13v21.5h-63
			L230.5,328.2L230.5,328.2z"/>
	</g>
</g>
</svg>
